<mxfile host="app.diagrams.net" modified="2021-12-30T23:30:37.814Z" agent="5.0 (Windows NT 10.0; Win64; x64) AppleWebKit/537.36 (KHTML, like Gecko) Chrome/96.0.4664.110 Safari/537.36" etag="6Vs2Wp3MpkGl8AptufRi" version="16.1.2" type="github">
  <diagram id="jfXipzFXKTmEHidH76ic" name="Page-1">
    <mxGraphModel dx="782" dy="436" grid="1" gridSize="10" guides="1" tooltips="1" connect="1" arrows="1" fold="1" page="1" pageScale="1" pageWidth="850" pageHeight="1100" math="0" shadow="0">
      <root>
        <mxCell id="0" />
        <mxCell id="1" parent="0" />
        <mxCell id="synqGXO_r-eGokFJ__kn-4" value="" style="edgeStyle=orthogonalEdgeStyle;rounded=0;orthogonalLoop=1;jettySize=auto;html=1;" edge="1" parent="1" source="synqGXO_r-eGokFJ__kn-1" target="synqGXO_r-eGokFJ__kn-3">
          <mxGeometry relative="1" as="geometry" />
        </mxCell>
        <mxCell id="synqGXO_r-eGokFJ__kn-1" value="Inicio" style="ellipse;whiteSpace=wrap;html=1;" vertex="1" parent="1">
          <mxGeometry x="240" y="100" width="120" height="80" as="geometry" />
        </mxCell>
        <mxCell id="synqGXO_r-eGokFJ__kn-7" value="" style="edgeStyle=orthogonalEdgeStyle;rounded=0;orthogonalLoop=1;jettySize=auto;html=1;" edge="1" parent="1" source="synqGXO_r-eGokFJ__kn-3">
          <mxGeometry relative="1" as="geometry">
            <mxPoint x="310" y="450" as="targetPoint" />
          </mxGeometry>
        </mxCell>
        <mxCell id="synqGXO_r-eGokFJ__kn-3" value="Digite seu nome" style="rhombus;whiteSpace=wrap;html=1;" vertex="1" parent="1">
          <mxGeometry x="260" y="260" width="100" height="100" as="geometry" />
        </mxCell>
        <mxCell id="synqGXO_r-eGokFJ__kn-9" style="edgeStyle=orthogonalEdgeStyle;rounded=0;orthogonalLoop=1;jettySize=auto;html=1;" edge="1" parent="1" source="synqGXO_r-eGokFJ__kn-8">
          <mxGeometry relative="1" as="geometry">
            <mxPoint x="310" y="590" as="targetPoint" />
          </mxGeometry>
        </mxCell>
        <mxCell id="synqGXO_r-eGokFJ__kn-8" value="Olá &quot;Nome&quot;&lt;br&gt;Você está pronto para participar no XYZ ?" style="ellipse;whiteSpace=wrap;html=1;" vertex="1" parent="1">
          <mxGeometry x="250" y="450" width="120" height="80" as="geometry" />
        </mxCell>
        <mxCell id="synqGXO_r-eGokFJ__kn-10" value="Qual seu e-mail?" style="rhombus;whiteSpace=wrap;html=1;" vertex="1" parent="1">
          <mxGeometry x="240" y="590" width="140" height="110" as="geometry" />
        </mxCell>
      </root>
    </mxGraphModel>
  </diagram>
</mxfile>
